<?xml version="1.0" encoding="utf-8"?>
<!-- Generator: Adobe Illustrator 26.0.0, SVG Export Plug-In . SVG Version: 6.00 Build 0)  -->
<svg version="1.1" id="Layer_1" xmlns="http://www.w3.org/2000/svg" xmlns:xlink="http://www.w3.org/1999/xlink" x="0px" y="0px"
	 viewBox="0 0 9563.6 10296.4" style="enable-background:new 0 0 9563.6 10296.4;" xml:space="preserve">
<style type="text/css">
	.st0{fill:#FFFFFF;}
</style>
<g>
	
		<ellipse transform="matrix(1 -5.577622e-03 5.577622e-03 1 -45.0908 12.2749)" class="st0" cx="2178.2" cy="8090.3" rx="182.8" ry="182.8"/>
	<path class="st0" d="M2178.2,6784.5c-720.1,0-1306,585.8-1306,1305.8c0,720,585.9,1305.8,1306,1305.8
		c720.1,0,1306-585.8,1306-1305.8C3484.1,7370.3,2898.3,6784.5,2178.2,6784.5z M2178.2,9356.1c-698.1,0-1266-567.8-1266-1265.8
		c0-698,567.9-1265.8,1266-1265.8s1266,567.8,1266,1265.8C3444.2,8788.3,2876.2,9356.1,2178.2,9356.1z"/>
	<ellipse class="st0" cx="6720.3" cy="8090.3" rx="182.8" ry="182.8"/>
	<path class="st0" d="M6720.3,6784.5c-720.1,0-1306,585.8-1306,1305.8c0,720,585.9,1305.8,1306,1305.8
		c720.1,0,1306-585.8,1306-1305.8C8026.2,7370.3,7440.4,6784.5,6720.3,6784.5z M6720.3,9356.1c-698.1,0-1266-567.8-1266-1265.8
		c0-698,567.9-1265.8,1266-1265.8c698.1,0,1266,567.8,1266,1265.8C7986.3,8788.3,7418.4,9356.1,6720.3,9356.1z"/>
	<polygon class="st0" points="4582.1,9276.2 4317.6,9276.2 4317.6,9466.6 3464.2,9466.6 3464.2,9657 4317.6,9657 4317.6,9812.1 
		4582.1,9812.1 4582.1,9657 5434.3,9657 5434.3,9466.6 4582.1,9466.6 	"/>
	<path class="st0" d="M3376.6,1608.4c0,38.6,31.3,69.9,69.9,69.9h846.3c38.6,0,69.9-31.3,69.9-69.9c0-38.6-31.3-69.9-69.9-69.9
		h-846.3C3407.9,1538.5,3376.6,1569.8,3376.6,1608.4z"/>
	<path class="st0" d="M3446.5,2092.7h846.3c38.6,0,69.9-31.3,69.9-69.9s-31.3-69.9-69.9-69.9h-846.3c-38.6,0-69.9,31.3-69.9,69.9
		S3407.9,2092.7,3446.5,2092.7z"/>
	<path class="st0" d="M4362.8,2444.1c0-38.6-31.3-69.9-69.9-69.9h-846.3c-38.6,0-69.9,31.3-69.9,69.9s31.3,69.9,69.9,69.9h846.3
		C4331.5,2514,4362.8,2482.7,4362.8,2444.1z"/>
	<path class="st0" d="M3256.1,150.4h846.3c38.6,0,69.9-31.3,69.9-69.9s-31.3-69.9-69.9-69.9h-846.3c-38.6,0-69.9,31.3-69.9,69.9
		S3217.5,150.4,3256.1,150.4z"/>
	<path class="st0" d="M3256.1,564.7h846.3c38.6,0,69.9-31.3,69.9-69.9s-31.3-69.9-69.9-69.9h-846.3c-38.6,0-69.9,31.3-69.9,69.9
		S3217.5,564.7,3256.1,564.7z"/>
	<path class="st0" d="M3256.1,986h846.3c38.6,0,69.9-31.3,69.9-69.9s-31.3-69.9-69.9-69.9h-846.3c-38.6,0-69.9,31.3-69.9,69.9
		S3217.5,986,3256.1,986z"/>
	<path class="st0" d="M2302.2,1601.4c0-38.6-31.3-69.9-69.9-69.9h-846.4c-38.6,0-69.9,31.3-69.9,69.9s31.3,69.9,69.9,69.9h354.4
		v772.8c0,38.6,31.3,69.9,69.9,69.9c38.6,0,69.9-31.3,69.9-69.9v-772.8h352.1C2270.9,1671.3,2302.2,1640,2302.2,1601.4z"/>
	<path class="st0" d="M260.2,988.4c38.6,0,69.9-31.3,69.9-69.9V617.7L871,984.5c12,8.2,25.7,12.1,39.2,12.1
		c22.4,0,44.4-10.7,57.9-30.7c21.7-32,13.3-75.5-18.6-97.1L498.6,563h368.3c38.6,0,69.9-31.3,69.9-69.9V73.4
		c0-38.6-31.3-69.9-69.9-69.9H260.2c-38.6,0-69.9,31.3-69.9,69.9v845.1C190.3,957.1,221.6,988.4,260.2,988.4z M330.2,143.4H797
		v279.7H330.2V143.4z"/>
	<path class="st0" d="M1170.8,976.1c34.9,16.2,76.6,1.1,92.9-34l328.2-706.6l337.3,720.8c11.9,25.4,37.1,40.3,63.4,40.3
		c9.9,0,20-2.1,29.6-6.6c35-16.4,50.1-58,33.7-93L1655,40.3C1643.5,15.7,1618.8,0,1591.6,0c0,0-0.1,0-0.1,0
		c-27.2,0-51.9,15.8-63.3,40.5l-391.4,842.7C1120.5,918.2,1135.8,959.8,1170.8,976.1z"/>
	<path class="st0" d="M4540.6,2514.7c9.4,4.3,19.3,6.3,29,6.3c26.5,0,51.9-15.2,63.7-40.9l328.5-719.1l336.8,719.7
		c16.4,35,58,50,93,33.7c35-16.4,50.1-58,33.7-93l-400.9-856.7c-11.5-24.6-36.2-40.3-63.3-40.3c-0.1,0-0.2,0-0.3,0
		c-27.3,0.1-52,16.1-63.3,40.9L4506.1,2422C4490,2457.1,4505.5,2498.6,4540.6,2514.7z"/>
	<path class="st0" d="M1591.6,3049.4C1591.6,3049.4,1591.6,3049.4,1591.6,3049.4c-27.3,0-52,15.8-63.4,40.5l-391.4,842.7
		c-16.3,35-1.1,76.6,34,92.9c34.9,16.2,76.6,1.1,92.9-34l328.2-706.6l337.3,720.8c11.9,25.4,37.1,40.3,63.4,40.3
		c9.9,0,20-2.1,29.6-6.6c35-16.4,50.1-58,33.7-93L1655,3089.7C1643.5,3065.1,1618.8,3049.4,1591.6,3049.4z"/>
	<path class="st0" d="M2558.6,953.3c10.8,26.2,36.3,43.3,64.6,43.3h0c28.3,0,53.8-17.1,64.6-43.2l354.3-856.7
		c14.8-35.7-2.2-76.6-37.9-91.3c-35.7-14.7-76.6,2.2-91.3,37.9l-289.6,700.3L2337.2,50.3c-14.8-35.7-55.7-52.7-91.3-38
		c-35.7,14.7-52.7,55.6-38,91.3L2558.6,953.3z"/>
	<path class="st0" d="M3328.4,3116.4v858c0,38.6,31.3,69.9,69.9,69.9s69.9-31.3,69.9-69.9v-858c0-38.6-31.3-69.9-69.9-69.9
		S3328.4,3077.7,3328.4,3116.4z"/>
	<path class="st0" d="M3692.2,4044.3h824c38.6,0,69.9-31.3,69.9-69.9v-843.9c0-38.6-31.3-69.9-69.9-69.9h-824
		c-38.6,0-69.9,31.3-69.9,69.9v843.9C3622.3,4012.9,3653.6,4044.3,3692.2,4044.3z M3762.1,3200.4h684.1v704h-684.1V3200.4z"/>
	<path class="st0" d="M2286.3,3904.4c-38.6,0-69.9,31.3-69.9,69.9s31.3,69.9,69.9,69.9h815.8c38.6,0,69.9-31.3,69.9-69.9v-843.9
		c0-38.6-31.3-69.9-69.9-69.9h-815.8c-38.6,0-69.9,31.3-69.9,69.9s31.3,69.9,69.9,69.9h745.8v704H2286.3z"/>
	<path class="st0" d="M2443.8,1608.4v413.4c0,0.6,0,1.2,0,1.8v420.4c0,38.6,31.3,69.9,69.9,69.9s69.9-31.3,69.9-69.9v-292.1
		l547.7,357.7c11.8,7.7,25.1,11.4,38.2,11.4c22.8,0,45.2-11.2,58.6-31.7c21.1-32.3,12-75.7-20.3-96.8l-459.2-299.9H3112
		c44.8,0,81.3-36.4,81.3-81.2v-391.7c0-44.8-36.5-81.2-81.3-81.2h-598.2C2475.2,1538.5,2443.8,1569.8,2443.8,1608.4z M2583.7,1678.4
		h469.6v274.4h-469.6V1678.4z"/>
	<path class="st0" d="M936.1,3547.7v-414.3c0-38.6-31.3-69.9-69.9-69.9H269.1c-38.6,0-69.9,31.3-69.9,69.9v413.4c0,0.6,0,1.2,0,1.8
		v420.5c0,38.6,31.3,69.9,69.9,69.9s69.9-31.3,69.9-69.9v-292.2l547.7,357.7c11.8,7.7,25.1,11.4,38.2,11.4
		c22.8,0,45.2-11.2,58.6-31.7c21.1-32.3,12-75.7-20.3-96.8L504,3617.6h362.2C904.8,3617.6,936.1,3586.3,936.1,3547.7z M796.2,3477.8
		H339v-274.4h457.3V3477.8z"/>
	<path class="st0" d="M5638.8,2521c38.6,0,69.9-31.3,69.9-69.9v-499.1l220.7,519.5c11,25.8,36.3,42.6,64.4,42.6s53.4-16.8,64.4-42.6
		l220.7-519.5v499.1c0,38.6,31.3,69.9,69.9,69.9s69.9-31.3,69.9-69.9v-842.7c0-33.2-23.4-61.9-56-68.5
		c-32.6-6.7-65.3,10.6-78.3,41.2l-290.6,684.1l-290.6-684.1c-13-30.6-45.7-47.9-78.3-41.2c-32.6,6.6-56,35.3-56,68.5v842.7
		C5568.9,2489.7,5600.2,2521,5638.8,2521z"/>
	<path class="st0" d="M257.4,2514h841.6c38.6,0,69.9-31.3,69.9-69.9v-421.3c0-38.6-31.3-69.9-69.9-69.9H334.4v-281.5h781.1
		c38.6,0,69.9-31.3,69.9-69.9s-31.3-69.9-69.9-69.9h-851c-38.6,0-69.9,31.3-69.9,69.9v421.4c0,38.6,31.3,69.9,69.9,69.9h764.7v281.5
		H257.4c-38.6,0-69.9,31.3-69.9,69.9S218.8,2514,257.4,2514z"/>
	<path class="st0" d="M7659.5,2050.1c108.7-94.2,194.4-289.2,233.8-533.1l697.3-407.8c10.4,11.5,25.4,18.8,42.1,18.8
		c31.3,0,56.7-25.4,56.7-56.7c0-31.3-25.4-56.7-56.7-56.7c-16.1,0-30.6,6.8-41,17.6l-719.5-226.4
		C7805.2,516.4,7669,318.5,7512,318.5c-223.7,0-405,401.4-405,896.5c0,385.2,109.8,713.7,263.8,840.5L6323.7,5893.6h-711.9v-943.8
		l-1798.5,923.8v-923.8l-1787.9,909.7v-860.3L252,5896.3C110,5915.1,0,6036.9,0,6183.9v3822.1c0,160.1,130.2,290.3,290.3,290.3h8172
		c160.1,0,290.3-130.2,290.3-290.3V6183.9c0-43.1-9.5-83.9-26.4-120.7L7659.5,2050.1z M7510.4,3589.5l-282.6-281l287.6-1053.9
		l279.7,1052.3L7510.4,3589.5z M7852,3520.7l147.6,555.4l-353.2-351.3L7852,3520.7z M7374.2,3724.7l-356.6,354l152.1-557.4
		L7374.2,3724.7z M7510.3,3860l460.3,457.8l-492.4,492.6l-466.1-455.8L7510.3,3860z M8101.2,4458.4l345.2,1298.8l-831.1-812.7
		L8101.2,4458.4z M8539.5,1074.3l-636.2,372c8.9-73.8,13.6-151.3,13.6-231.3c0-122.8-11.2-239.9-31.4-346.4L8539.5,1074.3z
		 M7300.5,1212.3c0-384.6,96-696.4,214.5-696.4c62.8,0,119.3,87.6,158.5,227.2l-110.2-34.7l-16.8,53.3l142.8,45
		c25.2,114.2,40.1,254.2,40.1,405.6c0,128.8-10.8,249.4-29.6,352.9l-159.1,93l28.3,48.3l115.4-67.5
		c-39.2,164-100.6,269.6-169.5,269.6C7396.5,1908.7,7300.5,1596.9,7300.5,1212.3z M6899.3,4512.6l443.2,433.4l-772.3,772.6
		L6899.3,4512.6z M7479.7,5080.2l831.9,813.5H6666.6L7479.7,5080.2z M5434.3,5893.6H4173.9l1260.4-644.1V5893.6z M3633.4,5893.6
		H2379l1254.4-651.1V5893.6z M1838.5,5893.6H685.8L1838.5,5306V5893.6z M8552.9,10006.1c0,49.9-40.6,90.5-90.5,90.5h-8172
		c-49.9,0-90.5-40.6-90.5-90.5V6183.9c0-49.9,40.6-90.5,90.5-90.5h8172c49.9,0,90.5,40.6,90.5,90.5V10006.1z"/>
	<path class="st0" d="M8918.7,835.5l-33.5,34.3c0.8,0.8,76.8,77.3,82.2,218.8c5.4,141.1-81.6,231.7-82.5,232.6l34.2,33.6
		c4.2-4.2,102.5-105.6,96.2-268.1C9009.1,925.1,8922.4,839.1,8918.7,835.5z"/>
	<path class="st0" d="M9176.6,766.3l-34.4,33.4c1,1,98.2,104.1,105.2,286.9c6.9,182.1-115.4,310.5-116.6,311.8l34.4,33.4
		c5.6-5.8,137.9-143.9,130.1-347C9287.5,882.7,9181.1,771,9176.6,766.3z"/>
	<path class="st0" d="M9563,1085.7c-9.7-255.6-120.2-401.2-124.9-407.3l-38,29.3c1.1,1.4,105.8,140.5,114.9,379.8
		c9.1,238.4-115.1,401.2-116.3,402.8l37.8,29.5C9442.2,1512.7,9572.8,1342.3,9563,1085.7z"/>
</g>
</svg>
